Simulation
nRows=42
nColumns=15
endheader
time  TH_x TH_y TH_z SC_y  SC_z  SC_x  AC_y  AC_z  AC_x  GH_y  GH_z  GH_yy  EL_x  PS_y
8.073123595505619  0.000000  0.000000  0.000000  -23.459571143461122  6.195448178427754  -5.326449380331791  57.68874193023474  9.084338762572346  8.801869640325183  -37.22871532193742  4.2334893267207985  93.08875186520649  16.78073809722249  120.000000
8.113288389513109  0.000000  0.000000  0.000000  -23.10366363114608  6.124932942312232  -5.8834669772202615  57.83966212850378  8.645714263619002  9.164892859084093  -23.018334626071145  5.419558537131497  78.24391710170485  16.280524463729463  120.000000
8.153453183520599  0.000000  0.000000  0.000000  -22.739460054565583  6.017227598847183  -6.459483539562398  58.05103515147103  8.216921607249118  9.564031462166096  -13.749554960458633  6.86704650154275  68.1467213957405  15.728417274737065  120.000000
8.19361797752809  0.000000  0.000000  0.000000  -22.381125952870416  5.885377044392754  -7.023236697728845  58.33109716972974  7.828864318086309  10.000958807796232  -7.312870231575503  8.515843916214896  60.693050905102915  15.144988640789837  120.000000
8.23378277153558  0.000000  0.000000  0.000000  -22.045450917485056  5.749781135878351  -7.542193823214328  58.68576093224669  7.513274010984383  10.474056983264415  -2.533642709747105  10.35515278358016  54.7182710308211  14.552388708199262  120.000000
8.273947565543072  0.000000  0.000000  0.000000  -21.74813443042156  5.6347547026755995  -7.986689640663049  59.116710307414664  7.298022743948209  10.977846302932024  1.1985830591216355  12.390445560888534  49.62635960742995  13.972126739823425  120.000000
8.314112359550561  0.000000  0.000000  0.000000  -21.501033777163265  5.56351827714411  -8.33234934483144  59.62166698687681  7.204137877595762  11.504397486843061  4.209316260494851  14.626584042764915  45.11100168477384  13.42265368431425  120.000000
8.354277153558053  0.000000  0.000000  0.000000  -21.31030306029674  5.553856475544473  -8.56111230644331  60.1947507875446  7.2443163889278654  12.04584254381054  6.6847645502359105  17.0604167658483  41.00899297752993  12.917677596437517  120.000000
8.394441947565543  0.000000  0.000000  0.000000  -21.174999580255776  5.615879326942454  -8.660602771726342  60.82637858080241  7.42131191784535  12.596357849904306  8.739883768186758  19.677221168981582  37.232342608528455  12.46577726522575  120.000000
8.434606741573035  0.000000  0.000000  0.000000  -21.088546050605927  5.752178693882421  -8.624660578211147  61.505444445977  7.72725044143696  13.15024996918263  10.457759617872531  22.45102360956333  33.72728881722658  12.070766758818102  120.000000
8.474771535580524  0.000000  0.000000  0.000000  -21.04287628210408  5.959309023512493  -8.453594384552197  62.220002059892906  8.145946126818579  13.6999806858006  11.902711714134954  25.347312177348748  30.458748985808867  11.731873741278482  120.000000
8.514936329588014  0.000000  0.000000  0.000000  -21.030174872603684  6.23036010871077  -8.152052457796206  62.95534182915567  8.655518208284068  14.23605847616324  13.121474771157855  28.32641854891676  27.40706590077209  11.444888431103049  120.000000
8.555101123595506  0.000000  0.000000  0.000000  -21.04530228918417  6.556010346959373  -7.726303359797321  63.69642299619119  9.230968643226285  14.749000086104193  14.149474861574143  31.34793427879673  24.559105880341622  11.203199470702243  120.000000
8.595265917602996  0.000000  0.000000  0.000000  -21.085277048698718  6.925524161154294  -7.182213222451813  64.42937550433761  9.846822347536472  15.23204007290489  15.017933859420424  34.37448039681877  21.901356966773854  10.999825531549215  120.000000
8.635430711610487  0.000000  0.000000  0.000000  -21.147594654577226  7.327381749161861  -6.525679871475238  65.13992387603788  10.47808161678044  15.680124427413693  15.752226408795435  37.37424385648601  19.420646385542668  10.828842782095633  120.000000
8.675595505617977  0.000000  0.000000  0.000000  -21.232233312261446  7.749663807577031  -5.76378898340026  65.81340190480698  11.100540886722472  16.088648000407506  16.37002323806058  40.319507680699964  17.10608941015233  10.685162435401866  120.000000
8.715760299625469  0.000000  0.000000  0.000000  -21.340749387905436  8.181313522781249  -4.905733285393383  66.43568450911671  11.690887843548122  16.45430188835292  16.885439766901698  43.18598020887302  14.946482524971657  10.565382604134095  120.000000
8.755925093632959  0.000000  0.000000  0.000000  -21.47426485796484  8.612467220944577  -3.9617986768733817  66.99606975833268  12.228843184902985  16.774940506754508  17.31065156572548  45.9525646124683  12.92978048252745  10.46735911350624  120.000000
8.79608988764045  0.000000  0.000000  0.000000  -21.63329122174135  9.035132866036276  -2.943369431885385  67.4870481098484  12.69801078235315  17.050047172782335  17.654874290446276  48.600778361560884  11.0449123149799  10.389917295689504  120.000000
8.83625468164794  0.000000  0.000000  0.000000  -21.817802578251865  9.44342047138668  -1.8633777363088901  67.90362688942272  13.086049019962356  17.280214398402723  17.924543065683963  51.11430060886274  9.282089199136372  10.332380408211804  120.000000
8.87641947565543  0.000000  0.000000  0.000000  -22.026446137005713  9.833173036534921  -0.7361378601646291  68.24361092445095  13.385199116695091  17.46678951865338  18.124339695031622  53.47916653084371  7.6328993565885455  10.293970985517307  120.000000
8.916584269662922  0.000000  0.000000  0.000000  -22.256214539435877  10.201800928412604  0.4233398110546456  68.50774988668358  13.59269288814883  17.611833737354498  18.258587087465802  55.684356141110264  6.0901080703236445  10.273602426780347  120.000000
8.956749063670411  0.000000  0.000000  0.000000  -22.5026702635089  10.54781223094029  1.6000578176955516  68.69967397843335  13.710844560143627  17.717932318431192  18.33192981030382  57.72210875303723  4.648251377532472  10.26943888485239  120.000000
8.996913857677903  0.000000  0.000000  0.000000  -22.76059207565209  10.870429385700419  2.7794089223185097  68.82529649936062  13.746134868949712  17.78814990306367  18.349900392639675  59.58777965244178  3.3041842666196635  10.27874287349269  120.000000
9.037078651685393  0.000000  0.000000  0.000000  -23.024648212080013  11.169114048346707  3.9474845173835873  68.89239197892083  13.708140035639474  17.825815355447638  18.31943762217054  61.27954056833513  2.057550834164288  10.297803327375117  120.000000
9.077243445692885  0.000000  0.000000  0.000000  -23.28979592817418  11.443490353668372  5.091220625821141  68.90978799440894  13.608818185393485  17.83453633718036  18.249037509099153  62.79828453766311  0.910696944322033  10.322123431355315  120.000000
9.117408239700374  0.000000  0.000000  0.000000  -23.551802568320255  11.693268121429119  6.19873236274056  68.88674167654992  13.461668624834513  17.81821113854671  18.14834357740299  64.14735585004448  -0.13171094273562567  10.346845110152984  120.000000
9.157573033707866  0.000000  0.000000  0.000000  -23.80730498720582  11.918056219154895  7.2591997611304775  68.83255852527543  13.280585523554835  17.780810273532907  18.0276019914019  65.33191717234209  -1.0636405169355163  10.367373478943572  120.000000
9.197737827715356  0.000000  0.000000  0.000000  -24.053268793648424  12.117100599108554  8.262413315257753  68.75670135908598  13.07851546983358  17.726130554283955  17.89722446481959  66.35774650488787  -1.8788749590226312  10.380107995465703  120.000000
9.237902621722846  0.000000  0.000000  0.000000  -24.286167549770997  12.28898991937912  9.19816002028836  68.66900220726474  12.866158297684638  17.657582962927496  17.7676219613962  67.22987255158054  -2.5722342482387655  10.38311199281932  120.000000
9.278067415730337  0.000000  0.000000  0.000000  -24.501411781579733  12.43166202439676  10.055857158624795  68.57988842276696  12.651091299413347  17.577954406245908  17.648998238443316  67.9513924785408  -3.140446687044482  10.37638379647562  120.000000
9.318232209737827  0.000000  0.000000  0.000000  -24.69307178315042  12.542563903286316  10.824567277961894  68.50009625694257  12.437501244617843  17.489170120291057  17.55106627711203  68.52271772371488  -3.582344521678972  10.361575887025111  120.000000
9.358397003745319  0.000000  0.000000  0.000000  -24.854109316490806  12.618926083565716  11.493390629984562  68.44010298219028  12.226415570779295  17.392086908991782  17.482609528888176  68.94130067100835  -3.8985127282507968  10.341168435155593  120.000000
9.398561797752809  0.000000  0.000000  0.000000  -24.976985904691443  12.657980236065999  12.051948068613934  68.40909323554081  12.016354461092188  17.2864625544411  17.45101502074694  69.20170203672892  -4.090459907321663  10.31743633859392  120.000000
9.4387265917603  0.000000  0.000000  0.000000  -25.054130757435324  12.657215047420435  12.490854973896022  68.41401779293567  11.803783309579986  17.170940074079997  17.461899786256275  69.29568445021359  -4.159703172818212  10.291510328584744  120.000000
9.47889138576779  0.000000  0.000000  0.000000  -25.078295337037666  12.614426401994558  12.801603599436502  68.45895076421102  11.583640096994275  17.04318955251502  17.519138841060485  69.21225144769461  -4.106929694660931  10.262853611700313  120.000000
9.519056179775282  0.000000  0.000000  0.000000  -25.043061958672194  12.527766772931033  12.976096438507684  68.54425334113361  11.35053877145226  16.900464727391164  17.624623860976325  68.9379498233043  -3.931493259755384  10.229280986511007  120.000000
9.559220973782772  0.000000  0.000000  0.000000  -24.94360927097227  12.395809148884386  13.006984572056103  68.66568038218011  11.099569769268442  16.74014989292932  17.777768092390183  68.45765879976632  -3.631050883730419  10.187562008917446  120.000000
9.599385767790261  0.000000  0.000000  0.000000  -24.777362430912085  12.217414134106239  12.888220389545886  68.81434786731867  10.826739833100484  16.5598817318653  17.975228272838038  67.75534081832119  -3.2016030402095303  10.13460788487435  120.000000
9.639550561797753  0.000000  0.000000  0.000000  -24.544243212787386  11.991726445407703  12.615247153229765  68.97678149833962  10.52934270891876  16.35797652536262  18.210788557705172  66.81487090772944  -2.6376968765288193  10.068976836782081  120.000000
9.679715355805243  0.000000  0.000000  0.000000  -24.247421582673372  11.71841817934184  12.185778187014021  69.13518329588139  10.206433781546123  16.133388609173352  18.475017663301223  65.62113086619027  -1.9325353058793542  9.992383868213158  120.000000
9.719880149812735  0.000000  0.000000  0.000000  -23.894379444870783  11.39835325296762  11.600183812763648  69.26808262574589  9.858840529789038  15.88519828845018  18.75488452948907  64.16123145149224  -1.0780078469549597  9.910524342745292  120.000000
